<?xml version="1.0" encoding="UTF-8" standalone="no"?>
<svg
   width="24"
   height="24"
   viewBox="0 0 24 24"
   version="1.1"
   id="svg2"
   sodipodi:docname="eyecon.svg"
   inkscape:version="1.4.1-rc (06eac75fbf, 2025-03-29)"
   xmlns:inkscape="http://www.inkscape.org/namespaces/inkscape"
   xmlns:sodipodi="http://sodipodi.sourceforge.net/DTD/sodipodi-0.dtd"
   xmlns="http://www.w3.org/2000/svg"
   xmlns:svg="http://www.w3.org/2000/svg">
  <defs
     id="defs2" />
  <sodipodi:namedview
     id="namedview2"
     pagecolor="#ffffff"
     bordercolor="#000000"
     borderopacity="0.25"
     inkscape:showpageshadow="2"
     inkscape:pageopacity="0.0"
     inkscape:pagecheckerboard="0"
     inkscape:deskcolor="#d1d1d1"
     inkscape:zoom="53.708333"
     inkscape:cx="14.44841"
     inkscape:cy="10.640807"
     inkscape:window-width="2490"
     inkscape:window-height="1536"
     inkscape:window-x="70"
     inkscape:window-y="27"
     inkscape:window-maximized="1"
     inkscape:current-layer="g2" />
  <g
     id="g2"
     transform="matrix(1.1685914,0,0,1.1685914,-2.023098,-2.023098)">
    <path
       d="M 21.83,11.442 C 21.653,11.179 17.441,5.4840962 12,5.4840962 6.559,5.4840962 2.347,11.179 2.17,11.442 L 1.8,12 2.174,12.558 c 0.173,0.263 4.385,5.957904 9.826,5.957904 5.441,0 9.653,-5.694904 9.83,-5.957904 L 22.2,12 Z M 12,17 C 8.469,17 4.7401893,13.41 3.6461893,12 4.7401893,10.59 8.469,7 12,7 c 3.531,0 7.07362,3.59 8.16762,5 C 19.07362,13.41 15.531,17 12,17 Z"
       id="path1"
       sodipodi:nodetypes="cscccscccscscs" />
    <path
       d="m 10.975512,16.155378 1.898941,-3.288305 1.496106,2.591081 c -0.720096,0.519741 -1.586331,0.798884 -2.474593,0.797614 -0.31769,0 -0.623943,-0.03473 -0.920454,-0.101661 z M 10.155024,15.884283 C 9.054122,15.386567 8.217538,14.443663 7.8541004,13.291931 h 3.7974566 l -1.496533,2.591928 z M 7.6812769,12.444757 C 7.5584364,11.242617 7.9566084,10.045984 8.775402,9.157299 l 1.897246,3.287458 z M 9.4217953,8.5829151 C 10.141893,8.063174 11.007705,7.7840304 11.895966,7.7853011 c 0.31769,0 0.623944,0.034733 0.920455,0.1016604 l -1.89894,3.2883055 z M 13.636909,8.1580576 c 1.100901,0.4977145 1.937486,1.4401954 2.300924,2.5923514 h -3.797456 l 1.496532,-2.591928 z m 2.473748,3.4395264 c 0.12285,1.201716 -0.275332,2.398771 -1.094125,3.287457 l -1.897246,-3.287457 h 2.992216 z"
       id="path2-6"
       sodipodi:nodetypes="cccccccccccccccccccccccccccccc"
       style="fill:#23534e;fill-opacity:1;stroke-width:0.422817;stroke-dasharray:none" />
  </g>
</svg>
