<?xml version="1.0" encoding="UTF-8" standalone="no"?>
<svg
   width="24"
   height="24"
   viewBox="0 0 24 24"
   version="1.1"
   id="svg2"
   sodipodi:docname="eyecon.svg"
   inkscape:version="1.1.2 (0a00cf5339, 2022-02-04)"
   xmlns:inkscape="http://www.inkscape.org/namespaces/inkscape"
   xmlns:sodipodi="http://sodipodi.sourceforge.net/DTD/sodipodi-0.dtd"
   xmlns="http://www.w3.org/2000/svg"
   xmlns:svg="http://www.w3.org/2000/svg">
  <defs
     id="defs2" />
  <sodipodi:namedview
     id="namedview2"
     pagecolor="#ffffff"
     bordercolor="#000000"
     borderopacity="0.25"
     inkscape:showpageshadow="2"
     inkscape:pageopacity="0.0"
     inkscape:pagecheckerboard="0"
     inkscape:deskcolor="#d1d1d1"
     inkscape:zoom="26.854167"
     inkscape:cx="-1.6570985"
     inkscape:cy="9.3840187"
     inkscape:window-width="2560"
     inkscape:window-height="1403"
     inkscape:window-x="3440"
     inkscape:window-y="0"
     inkscape:window-maximized="1"
     inkscape:current-layer="g2"
     inkscape:pageshadow="2"
     showgrid="false" />
  <g
     id="g2"
     transform="matrix(1.1685914,0,0,1.1685914,-2.023098,-2.023098)">
    <path
       d="M 21.83,11.442 C 21.653,11.179 17.441,5.4840962 12,5.4840962 6.559,5.4840962 2.347,11.179 2.17,11.442 L 1.8,12 2.174,12.558 c 0.173,0.263 4.385,5.957904 9.826,5.957904 5.441,0 9.653,-5.694904 9.83,-5.957904 L 22.2,12 Z M 12,17 C 8.469,17 4.7401893,13.41 3.6461893,12 4.7401893,10.59 8.469,7 12,7 c 3.531,0 7.07362,3.59 8.16762,5 C 19.07362,13.41 15.531,17 12,17 Z"
       id="path1"
       sodipodi:nodetypes="cscccscccscscs" />
    <path
       d="m 10.975512,16.155378 1.898941,-3.288305 1.496106,2.591081 c -0.720096,0.519741 -1.586331,0.798884 -2.474593,0.797614 -0.31769,0 -0.623943,-0.03473 -0.920454,-0.101661 z M 10.155024,15.884283 C 9.054122,15.386567 8.217538,14.443663 7.8541004,13.291931 h 3.7974566 l -1.496533,2.591928 z M 7.6812769,12.444757 C 7.5584364,11.242617 7.9566084,10.045984 8.775402,9.157299 l 1.897246,3.287458 z M 9.4217953,8.5829151 C 10.141893,8.063174 11.007705,7.7840304 11.895966,7.7853011 c 0.31769,0 0.623944,0.034733 0.920455,0.1016604 l -1.89894,3.2883055 z M 13.636909,8.1580576 c 1.100901,0.4977145 1.937486,1.4401954 2.300924,2.5923514 h -3.797456 l 1.496532,-2.591928 z m 2.473748,3.4395264 c 0.12285,1.201716 -0.275332,2.398771 -1.094125,3.287457 l -1.897246,-3.287457 h 2.992216 z"
       id="path2-6"
       sodipodi:nodetypes="cccccccccccccccccccccccccccccc"
       style="fill:#23534e;fill-opacity:1;stroke-width:0.422817;stroke-dasharray:none" />
    <path
       d="m 13.951831,18.08051 0.621151,2.31817 c 0.126629,0.472564 0.506997,0.788164 0.851992,0.695723 0.344979,-0.09244 0.5183,-0.549559 0.389968,-1.028505 L 15.19379,17.747727"
       style="stroke-width:0.0340297"
       id="path3799" />
    <path
       d="m 16.325851,17.333502 1.199973,2.078415 c 0.244618,0.42369 0.693713,0.630087 1.003027,0.451504 0.309299,-0.178574 0.358403,-0.664979 0.110482,-1.094389 L 17.43936,16.690617"
       style="stroke-width:0.0340297"
       id="path3799-9" />
    <path
       d="m 11.420139,18.454991 v 2.399946 c 0,0.489236 0.28573,0.892528 0.642895,0.892528 0.357148,0 0.642875,-0.396687 0.642875,-0.892528 v -2.399946"
       style="stroke-width:0.0340297"
       id="path3799-9-2" />
    <path
       d="M 6.7397545,16.749145 5.539781,18.82756 c -0.2446175,0.42369 -0.1988154,0.915816 0.1104985,1.094398 0.3092993,0.178574 0.7550905,-0.0221 1.003011,-0.451513 L 7.853264,17.39203"
       style="stroke-width:0.0340297"
       id="path3799-9-1" />
    <path
       d="m 8.9932745,17.957622 -0.6072923,2.266443 c -0.1237996,0.46202 0.050145,0.916829 0.3951403,1.00927 0.344978,0.09244 0.721349,-0.208231 0.8468181,-0.676488 l 0.6072924,-2.266443"
       style="stroke-width:0.0336478"
       id="path3799-3" />
    <path
       d="m 10.129879,5.9587607 -0.6211508,-2.31817 c -0.126629,-0.472564 -0.506997,-0.788164 -0.851992,-0.695723 -0.344979,0.09244 -0.5183,0.549559 -0.389968,1.028505 l 0.621152,2.318171"
       style="stroke-width:0.0340297"
       id="path3799-7" />
    <path
       d="m 7.7558592,6.7057687 -1.199973,-2.078415 c -0.244618,-0.42369 -0.693713,-0.630087 -1.003027,-0.451504 -0.309299,0.178574 -0.358403,0.664979 -0.110482,1.094389 l 1.199973,2.078415"
       style="stroke-width:0.0340297"
       id="path3799-9-0" />
    <path
       d="m 12.661571,5.5842797 v -2.399946 c 0,-0.489236 -0.28573,-0.892528 -0.642895,-0.892528 -0.357148,0 -0.642875,0.396687 -0.642875,0.892528 v 2.399946"
       style="stroke-width:0.0340297"
       id="path3799-9-2-9" />
    <path
       d="m 17.341956,7.2901257 1.199973,-2.078415 c 0.244618,-0.42369 0.198815,-0.915816 -0.110498,-1.094398 -0.3093,-0.178574 -0.755091,0.0221 -1.003011,0.451513 l -1.199974,2.078415"
       style="stroke-width:0.0340297"
       id="path3799-9-1-3" />
    <path
       d="m 15.088436,6.0816487 0.607292,-2.266443 c 0.123799,-0.46202 -0.05015,-0.916829 -0.39514,-1.00927 -0.344978,-0.09244 -0.721349,0.208231 -0.846819,0.676488 l -0.607292,2.266443"
       style="stroke-width:0.0336478"
       id="path3799-3-6" />
    <circle
       cx="11.932333"
       cy="12.068722"
       fill="#000000"
       id="circle1212"
       style="stroke-width:0.526369"
       r="1.0527391" />
    <circle
       cx="12.458702"
       cy="11.542352"
       fill="#ffffff"
       id="circle1214"
       style="stroke-width:0.526369"
       r="0.26318479" />
  </g>
</svg>
